<?xml version="1.0" encoding="UTF-8" standalone="no"?>
<svg width="800" height="600" viewBox="0 0 800 600" xmlns="http://www.w3.org/2000/svg">
  <rect width="800" height="600" fill="#f8f9fa"/>
  <path d="M0,600 L800,600 L800,400 C600,500 200,300 0,400 Z" fill="#e9ecef"/>
  <path d="M0,600 L800,600 L800,450 C700,500 100,400 0,450 Z" fill="#dee2e6" fill-opacity="0.3"/>
  
  <!-- AI Brain -->
  <circle cx="400" cy="200" r="120" fill="#4361ee" fill-opacity="0.1"/>
  <g transform="translate(320, 120)">
    <path d="M80,0 C124.18,0 160,35.82 160,80 C160,124.18 124.18,160 80,160 C35.82,160 0,124.18 0,80 C0,35.82 35.82,0 80,0 Z" fill="#4361ee" fill-opacity="0.2"/>
    <path d="M80,20 C113.14,20 140,46.86 140,80 C140,113.14 113.14,140 80,140 C46.86,140 20,113.14 20,80 C20,46.86 46.86,20 80,20 Z" fill="#4361ee" fill-opacity="0.3"/>
    
    <!-- Neural Network Lines -->
    <line x1="40" y1="40" x2="120" y2="120" stroke="#4361ee" stroke-width="2"/>
    <line x1="40" y1="120" x2="120" y2="40" stroke="#4361ee" stroke-width="2"/>
    <line x1="80" y1="30" x2="80" y2="130" stroke="#4361ee" stroke-width="2"/>
    <line x1="30" y1="80" x2="130" y2="80" stroke="#4361ee" stroke-width="2"/>
    
    <!-- Nodes -->
    <circle cx="40" cy="40" r="8" fill="#ff6b6b"/>
    <circle cx="120" cy="40" r="8" fill="#ff6b6b"/>
    <circle cx="40" cy="120" r="8" fill="#ff6b6b"/>
    <circle cx="120" cy="120" r="8" fill="#ff6b6b"/>
    <circle cx="80" cy="30" r="8" fill="#ff6b6b"/>
    <circle cx="80" cy="130" r="8" fill="#ff6b6b"/>
    <circle cx="30" cy="80" r="8" fill="#ff6b6b"/>
    <circle cx="130" cy="80" r="8" fill="#ff6b6b"/>
    <circle cx="80" cy="80" r="15" fill="#ff6b6b"/>
  </g>
  
  <!-- Text Elements -->
  <g transform="translate(150, 350)">
    <rect x="0" y="0" width="500" height="60" rx="10" fill="#4361ee"/>
    <rect x="0" y="80" width="500" height="60" rx="10" fill="#4361ee" fill-opacity="0.8"/>
    <rect x="0" y="160" width="500" height="60" rx="10" fill="#4361ee" fill-opacity="0.6"/>
  </g>
  
  <g transform="translate(180, 390)">
    <text font-family="Arial" font-size="24" font-weight="bold" fill="#ffffff">INTELIGÊNCIA ARTIFICIAL</text>
  </g>
  <g transform="translate(180, 470)">
    <text font-family="Arial" font-size="18" fill="#ffffff">Otimize suas campanhas com IA</text>
  </g>
  <g transform="translate(180, 550)">
    <text font-family="Arial" font-size="16" fill="#ffffff">Copywriting | Criação Visual | Análise de Dados</text>
  </g>
</svg>
