<?xml version="1.0" encoding="UTF-8" standalone="no"?>
<svg width="800" height="600" viewBox="0 0 800 600" xmlns="http://www.w3.org/2000/svg">
  <rect width="800" height="600" fill="#f8f9fa"/>
  
  <!-- Background Pattern -->
  <path d="M0,600 L800,600 L800,400 C600,500 200,300 0,400 Z" fill="#e9ecef"/>
  <path d="M0,600 L800,600 L800,450 C700,500 100,400 0,450 Z" fill="#dee2e6" fill-opacity="0.3"/>
  
  <!-- Dashboard Mockup -->
  <rect x="100" y="50" width="600" height="500" rx="10" fill="#ffffff" stroke="#ced4da" stroke-width="2"/>
  
  <!-- Header -->
  <rect x="100" y="50" width="600" height="60" rx="10" fill="#4361ee"/>
  <circle cx="130" cy="80" r="15" fill="#ffffff"/>
  <rect x="160" y="70" width="120" height="20" rx="5" fill="#ffffff" fill-opacity="0.8"/>
  
  <!-- Sidebar -->
  <rect x="100" y="110" width="150" height="440" fill="#f8f9fa"/>
  
  <!-- Sidebar Menu Items -->
  <rect x="120" y="140" width="110" height="30" rx="5" fill="#4361ee"/>
  <rect x="120" y="190" width="110" height="30" rx="5" fill="#ffffff" stroke="#ced4da" stroke-width="1"/>
  <rect x="120" y="240" width="110" height="30" rx="5" fill="#ffffff" stroke="#ced4da" stroke-width="1"/>
  <rect x="120" y="290" width="110" height="30" rx="5" fill="#ffffff" stroke="#ced4da" stroke-width="1"/>
  <rect x="120" y="340" width="110" height="30" rx="5" fill="#ffffff" stroke="#ced4da" stroke-width="1"/>
  <rect x="120" y="390" width="110" height="30" rx="5" fill="#ffffff" stroke="#ced4da" stroke-width="1"/>
  
  <!-- Main Content Area -->
  <rect x="270" y="130" width="410" height="60" rx="5" fill="#f8f9fa"/>
  <rect x="290" y="145" width="250" height="30" rx="5" fill="#4361ee" fill-opacity="0.1"/>
  <rect x="550" y="145" width="110" height="30" rx="5" fill="#4361ee"/>
  
  <!-- Progress Cards -->
  <rect x="270" y="210" width="190" height="120" rx="5" fill="#ffffff" stroke="#ced4da" stroke-width="1"/>
  <rect x="290" y="230" width="150" height="15" rx="2" fill="#ced4da"/>
  <rect x="290" y="255" width="100" height="10" rx="2" fill="#e9ecef"/>
  <rect x="290" y="275" width="150" height="10" rx="5" fill="#e9ecef"/>
  <rect x="290" y="275" width="90" height="10" rx="5" fill="#4361ee"/>
  <rect x="290" y="295" width="70" height="15" rx="2" fill="#ced4da"/>
  
  <rect x="490" y="210" width="190" height="120" rx="5" fill="#ffffff" stroke="#ced4da" stroke-width="1"/>
  <rect x="510" y="230" width="150" height="15" rx="2" fill="#ced4da"/>
  <rect x="510" y="255" width="100" height="10" rx="2" fill="#e9ecef"/>
  <rect x="510" y="275" width="150" height="10" rx="5" fill="#e9ecef"/>
  <rect x="510" y="275" width="45" height="10" rx="5" fill="#ff6b6b"/>
  <rect x="510" y="295" width="70" height="15" rx="2" fill="#ced4da"/>
  
  <!-- Content Modules -->
  <rect x="270" y="350" width="410" height="50" rx="5" fill="#ffffff" stroke="#ced4da" stroke-width="1"/>
  <circle cx="295" cy="375" r="15" fill="#4361ee" fill-opacity="0.2"/>
  <text x="295" y="380" font-family="Arial" font-size="14" text-anchor="middle" fill="#4361ee">1</text>
  <rect x="320" y="365" width="150" height="10" rx="2" fill="#ced4da"/>
  <rect x="320" y="385" width="100" height="5" rx="2" fill="#e9ecef"/>
  <rect x="600" y="365" width="60" height="20" rx="10" fill="#4361ee" fill-opacity="0.1"/>
  
  <rect x="270" y="410" width="410" height="50" rx="5" fill="#ffffff" stroke="#ced4da" stroke-width="1"/>
  <circle cx="295" cy="435" r="15" fill="#4361ee" fill-opacity="0.2"/>
  <text x="295" y="440" font-family="Arial" font-size="14" text-anchor="middle" fill="#4361ee">2</text>
  <rect x="320" y="425" width="150" height="10" rx="2" fill="#ced4da"/>
  <rect x="320" y="445" width="100" height="5" rx="2" fill="#e9ecef"/>
  <rect x="600" y="425" width="60" height="20" rx="10" fill="#4361ee" fill-opacity="0.1"/>
  
  <rect x="270" y="470" width="410" height="50" rx="5" fill="#ffffff" stroke="#ced4da" stroke-width="1"/>
  <circle cx="295" cy="495" r="15" fill="#4361ee" fill-opacity="0.2"/>
  <text x="295" y="500" font-family="Arial" font-size="14" text-anchor="middle" fill="#4361ee">3</text>
  <rect x="320" y="485" width="150" height="10" rx="2" fill="#ced4da"/>
  <rect x="320" y="505" width="100" height="5" rx="2" fill="#e9ecef"/>
  <rect x="600" y="485" width="60" height="20" rx="10" fill="#4361ee" fill-opacity="0.1"/>
</svg>
