<?xml version="1.0" encoding="UTF-8" standalone="no"?>
<svg width="800" height="600" viewBox="0 0 800 600" xmlns="http://www.w3.org/2000/svg">
  <rect width="800" height="600" fill="#4361ee"/>
  <path d="M0,600 L800,600 L800,400 C600,500 200,300 0,400 Z" fill="#3a56d4"/>
  <path d="M0,600 L800,600 L800,450 C700,500 100,400 0,450 Z" fill="#2b2d42" fill-opacity="0.3"/>
  <circle cx="650" cy="150" r="80" fill="#ff6b6b" fill-opacity="0.7"/>
  <circle cx="680" cy="120" r="40" fill="#ffffff" fill-opacity="0.2"/>
  <g transform="translate(150, 200)">
    <rect x="0" y="0" width="500" height="60" rx="10" fill="#ffffff"/>
    <rect x="0" y="80" width="500" height="60" rx="10" fill="#ffffff" fill-opacity="0.8"/>
    <rect x="0" y="160" width="500" height="60" rx="10" fill="#ffffff" fill-opacity="0.6"/>
    <rect x="0" y="240" width="240" height="60" rx="10" fill="#ff6b6b"/>
    <rect x="260" y="240" width="240" height="60" rx="10" fill="#ffffff" fill-opacity="0.4"/>
  </g>
  <g transform="translate(180, 220)">
    <text font-family="Arial" font-size="24" font-weight="bold" fill="#333333">TRÁFEGO MASTER</text>
  </g>
  <g transform="translate(180, 300)">
    <text font-family="Arial" font-size="18" fill="#333333">Curso de Gestão de Tráfego Pago</text>
  </g>
  <g transform="translate(180, 380)">
    <text font-family="Arial" font-size="16" fill="#333333">Google Ads | Meta Ads | Marketing de Afiliados</text>
  </g>
  <g transform="translate(180, 460)">
    <text font-family="Arial" font-size="16" font-weight="bold" fill="#ffffff">COMEÇAR AGORA</text>
  </g>
</svg>
