<?xml version="1.0" encoding="UTF-8" standalone="no"?>
<svg width="800" height="600" viewBox="0 0 800 600" xmlns="http://www.w3.org/2000/svg">
  <rect width="800" height="600" fill="#f8f9fa"/>
  
  <!-- Background Pattern -->
  <path d="M0,600 L800,600 L800,400 C600,500 200,300 0,400 Z" fill="#e9ecef"/>
  <path d="M0,600 L800,600 L800,450 C700,500 100,400 0,450 Z" fill="#dee2e6" fill-opacity="0.3"/>
  
  <!-- Decorative Elements -->
  <circle cx="700" cy="100" r="50" fill="#4361ee" fill-opacity="0.1"/>
  <circle cx="730" cy="70" r="30" fill="#4361ee" fill-opacity="0.2"/>
  
  <!-- Pattern Dots -->
  <g fill="#4361ee" fill-opacity="0.1">
    <circle cx="100" cy="100" r="5"/>
    <circle cx="150" cy="100" r="5"/>
    <circle cx="200" cy="100" r="5"/>
    <circle cx="250" cy="100" r="5"/>
    <circle cx="300" cy="100" r="5"/>
    <circle cx="350" cy="100" r="5"/>
    <circle cx="400" cy="100" r="5"/>
    <circle cx="450" cy="100" r="5"/>
    <circle cx="500" cy="100" r="5"/>
    <circle cx="550" cy="100" r="5"/>
    <circle cx="600" cy="100" r="5"/>
    <circle cx="650" cy="100" r="5"/>
    
    <circle cx="100" cy="150" r="5"/>
    <circle cx="150" cy="150" r="5"/>
    <circle cx="200" cy="150" r="5"/>
    <circle cx="250" cy="150" r="5"/>
    <circle cx="300" cy="150" r="5"/>
    <circle cx="350" cy="150" r="5"/>
    <circle cx="400" cy="150" r="5"/>
    <circle cx="450" cy="150" r="5"/>
    <circle cx="500" cy="150" r="5"/>
    <circle cx="550" cy="150" r="5"/>
    <circle cx="600" cy="150" r="5"/>
    <circle cx="650" cy="150" r="5"/>
  </g>
  
  <!-- Main Content -->
  <g transform="translate(150, 200)">
    <!-- Icon 1 -->
    <circle cx="75" cy="75" r="50" fill="#4361ee"/>
    <path d="M75,45 L75,105 M45,75 L105,75" stroke="#ffffff" stroke-width="8" stroke-linecap="round"/>
    <text x="75" y="160" font-family="Arial" font-size="16" text-anchor="middle" fill="#333333">Google Ads</text>
    
    <!-- Icon 2 -->
    <circle cx="250" cy="75" r="50" fill="#4361ee"/>
    <path d="M250,45 C230,55 230,95 250,105 C270,95 270,55 250,45" stroke="#ffffff" stroke-width="8" fill="none" stroke-linecap="round" stroke-linejoin="round"/>
    <text x="250" y="160" font-family="Arial" font-size="16" text-anchor="middle" fill="#333333">Meta Ads</text>
    
    <!-- Icon 3 -->
    <circle cx="425" cy="75" r="50" fill="#4361ee"/>
    <path d="M405,65 L445,65 M405,85 L445,85" stroke="#ffffff" stroke-width="8" stroke-linecap="round"/>
    <path d="M425,45 L425,105" stroke="#ffffff" stroke-width="8" stroke-linecap="round"/>
    <text x="425" y="160" font-family="Arial" font-size="16" text-anchor="middle" fill="#333333">Afiliados</text>
  </g>
  
  <!-- Bottom Text -->
  <g transform="translate(400, 400)">
    <text x="0" y="0" font-family="Arial" font-size="24" font-weight="bold" text-anchor="middle" fill="#333333">RECURSOS DO CURSO</text>
    <text x="0" y="40" font-family="Arial" font-size="16" text-anchor="middle" fill="#666666">Templates • Exercícios • Ferramentas • Comunidade</text>
  </g>
  
  <!-- Bottom Decorative Elements -->
  <rect x="250" y="470" width="300" height="10" rx="5" fill="#4361ee" fill-opacity="0.2"/>
  <rect x="300" y="490" width="200" height="10" rx="5" fill="#4361ee" fill-opacity="0.3"/>
  <rect x="350" y="510" width="100" height="10" rx="5" fill="#4361ee" fill-opacity="0.4"/>
</svg>
